<?xml version="1.0" encoding="UTF-8"?>
<svg xmlns="http://www.w3.org/2000/svg" viewBox="0 0 64 128" width="64" height="128" shape-rendering="crispEdges">
  <!-- 16-bit Pixel Art Hero Warrior - KNOCKED OUT - Sleeping peacefully with stars (kid-friendly) -->

  <!-- Cute spinning stars above head -->
  <rect x="20" y="20" width="4" height="4" fill="#ffff44"/>
  <rect x="16" y="24" width="4" height="4" fill="#ffff88"/>
  <rect x="24" y="24" width="4" height="4" fill="#ffff88"/>
  <rect x="20" y="28" width="4" height="4" fill="#ffff44"/>

  <rect x="40" y="16" width="4" height="4" fill="#ffff44"/>
  <rect x="36" y="20" width="4" height="4" fill="#ffff88"/>
  <rect x="44" y="20" width="4" height="4" fill="#ffff88"/>
  <rect x="40" y="24" width="4" height="4" fill="#ffff44"/>

  <rect x="56" y="24" width="4" height="4" fill="#ffff44"/>
  <rect x="52" y="28" width="4" height="4" fill="#ffff88"/>
  <rect x="60" y="28" width="4" height="4" fill="#ffff88"/>
  <rect x="56" y="32" width="4" height="4" fill="#ffff44"/>

  <!-- Hero lying down horizontally - head on right side -->

  <!-- Boot soles (left side of sprite) -->
  <rect x="0" y="56" width="4" height="4" fill="#1a1510"/>
  <rect x="0" y="60" width="4" height="4" fill="#1a1510"/>
  <rect x="0" y="64" width="4" height="4" fill="#2d2218"/>
  <rect x="0" y="68" width="4" height="4" fill="#2d2218"/>

  <!-- Boots -->
  <rect x="4" y="52" width="4" height="4" fill="#2d2218"/>
  <rect x="4" y="56" width="4" height="4" fill="#4a3728"/>
  <rect x="4" y="60" width="4" height="4" fill="#5a4030"/>
  <rect x="4" y="64" width="4" height="4" fill="#4a3728"/>
  <rect x="4" y="68" width="4" height="4" fill="#4a3728"/>
  <rect x="4" y="72" width="4" height="4" fill="#2d2218"/>

  <rect x="8" y="52" width="4" height="4" fill="#4a3728"/>
  <rect x="8" y="56" width="4" height="4" fill="#4a3728"/>
  <rect x="8" y="60" width="4" height="4" fill="#4a3728"/>
  <rect x="8" y="64" width="4" height="4" fill="#5a4030"/>
  <rect x="8" y="68" width="4" height="4" fill="#4a3728"/>
  <rect x="8" y="72" width="4" height="4" fill="#4a3728"/>

  <!-- Shin/Leg armor -->
  <rect x="12" y="52" width="4" height="4" fill="#3d4866"/>
  <rect x="12" y="56" width="4" height="4" fill="#5a6988"/>
  <rect x="12" y="60" width="4" height="4" fill="#5a6988"/>
  <rect x="12" y="64" width="4" height="4" fill="#5a6988"/>
  <rect x="12" y="68" width="4" height="4" fill="#5a6988"/>
  <rect x="12" y="72" width="4" height="4" fill="#3d4866"/>

  <!-- Knee guard -->
  <rect x="16" y="52" width="4" height="4" fill="#5a6988"/>
  <rect x="16" y="56" width="4" height="4" fill="#8899bb"/>
  <rect x="16" y="60" width="4" height="4" fill="#d4af37"/>
  <rect x="16" y="64" width="4" height="4" fill="#d4af37"/>
  <rect x="16" y="68" width="4" height="4" fill="#8899bb"/>
  <rect x="16" y="72" width="4" height="4" fill="#5a6988"/>

  <!-- Thigh -->
  <rect x="20" y="52" width="4" height="4" fill="#3d4866"/>
  <rect x="20" y="56" width="4" height="4" fill="#5a6988"/>
  <rect x="20" y="60" width="4" height="4" fill="#5a6988"/>
  <rect x="20" y="64" width="4" height="4" fill="#5a6988"/>
  <rect x="20" y="68" width="4" height="4" fill="#5a6988"/>
  <rect x="20" y="72" width="4" height="4" fill="#3d4866"/>

  <!-- Belt/Hip -->
  <rect x="24" y="52" width="4" height="4" fill="#3d4866"/>
  <rect x="24" y="56" width="4" height="4" fill="#8b4513"/>
  <rect x="24" y="60" width="4" height="4" fill="#f4d03f"/>
  <rect x="24" y="64" width="4" height="4" fill="#d4af37"/>
  <rect x="24" y="68" width="4" height="4" fill="#8b4513"/>
  <rect x="24" y="72" width="4" height="4" fill="#3d4866"/>

  <!-- Torso armor -->
  <rect x="28" y="52" width="4" height="4" fill="#3d4866"/>
  <rect x="28" y="56" width="4" height="4" fill="#5a6988"/>
  <rect x="28" y="60" width="4" height="4" fill="#5a6988"/>
  <rect x="28" y="64" width="4" height="4" fill="#5a6988"/>
  <rect x="28" y="68" width="4" height="4" fill="#5a6988"/>
  <rect x="28" y="72" width="4" height="4" fill="#3d4866"/>

  <!-- Chest with emblem -->
  <rect x="32" y="52" width="4" height="4" fill="#5a6988"/>
  <rect x="32" y="56" width="4" height="4" fill="#8899bb"/>
  <rect x="32" y="60" width="4" height="4" fill="#f4d03f"/>
  <rect x="32" y="64" width="4" height="4" fill="#d4af37"/>
  <rect x="32" y="68" width="4" height="4" fill="#8899bb"/>
  <rect x="32" y="72" width="4" height="4" fill="#5a6988"/>

  <!-- Shoulder/Cape edge -->
  <rect x="36" y="48" width="4" height="4" fill="#8c2828"/>
  <rect x="36" y="52" width="4" height="4" fill="#c23a3a"/>
  <rect x="36" y="56" width="4" height="4" fill="#c23a3a"/>
  <rect x="36" y="60" width="4" height="4" fill="#5a6988"/>
  <rect x="36" y="64" width="4" height="4" fill="#5a6988"/>
  <rect x="36" y="68" width="4" height="4" fill="#c23a3a"/>
  <rect x="36" y="72" width="4" height="4" fill="#c23a3a"/>
  <rect x="36" y="76" width="4" height="4" fill="#8c2828"/>

  <!-- Cape spread out beneath -->
  <rect x="40" y="48" width="4" height="4" fill="#8c2828"/>
  <rect x="40" y="52" width="4" height="4" fill="#c23a3a"/>
  <rect x="40" y="56" width="4" height="4" fill="#c23a3a"/>
  <rect x="40" y="60" width="4" height="4" fill="#c23a3a"/>
  <rect x="40" y="64" width="4" height="4" fill="#c23a3a"/>
  <rect x="40" y="68" width="4" height="4" fill="#c23a3a"/>
  <rect x="40" y="72" width="4" height="4" fill="#c23a3a"/>
  <rect x="40" y="76" width="4" height="4" fill="#8c2828"/>

  <!-- Neck -->
  <rect x="44" y="56" width="4" height="4" fill="#3d4866"/>
  <rect x="44" y="60" width="4" height="4" fill="#d4a456"/>
  <rect x="44" y="64" width="4" height="4" fill="#f4c17a"/>
  <rect x="44" y="68" width="4" height="4" fill="#3d4866"/>

  <!-- Head/Face - peaceful sleeping expression -->
  <rect x="48" y="52" width="4" height="4" fill="#3d4866"/>
  <rect x="48" y="56" width="4" height="4" fill="#d4a456"/>
  <rect x="48" y="60" width="4" height="4" fill="#f4c17a"/>
  <rect x="48" y="64" width="4" height="4" fill="#f4c17a"/>
  <rect x="48" y="68" width="4" height="4" fill="#d4a456"/>
  <rect x="48" y="72" width="4" height="4" fill="#3d4866"/>

  <!-- Face details - closed eyes (sleeping) -->
  <rect x="52" y="52" width="4" height="4" fill="#3d4866"/>
  <rect x="52" y="56" width="4" height="4" fill="#f4c17a"/>
  <rect x="52" y="60" width="4" height="4" fill="#2a3040"/>
  <rect x="52" y="64" width="4" height="4" fill="#f4c17a"/>
  <rect x="52" y="68" width="4" height="4" fill="#f4c17a"/>
  <rect x="52" y="72" width="4" height="4" fill="#3d4866"/>

  <!-- Helmet -->
  <rect x="56" y="48" width="4" height="4" fill="#d4af37"/>
  <rect x="56" y="52" width="4" height="4" fill="#5a6988"/>
  <rect x="56" y="56" width="4" height="4" fill="#5a6988"/>
  <rect x="56" y="60" width="4" height="4" fill="#d4af37"/>
  <rect x="56" y="64" width="4" height="4" fill="#d4af37"/>
  <rect x="56" y="68" width="4" height="4" fill="#5a6988"/>
  <rect x="56" y="72" width="4" height="4" fill="#5a6988"/>
  <rect x="56" y="76" width="4" height="4" fill="#d4af37"/>

  <!-- Helmet plume -->
  <rect x="60" y="48" width="4" height="4" fill="#a68b29"/>
  <rect x="60" y="52" width="4" height="4" fill="#d4af37"/>
  <rect x="60" y="56" width="4" height="4" fill="#f4d03f"/>
  <rect x="60" y="60" width="4" height="4" fill="#f4d03f"/>
  <rect x="60" y="64" width="4" height="4" fill="#f4d03f"/>
  <rect x="60" y="68" width="4" height="4" fill="#f4d03f"/>
  <rect x="60" y="72" width="4" height="4" fill="#d4af37"/>
  <rect x="60" y="76" width="4" height="4" fill="#a68b29"/>

  <!-- Arm resting on ground -->
  <rect x="28" y="76" width="4" height="4" fill="#d4a456"/>
  <rect x="32" y="76" width="4" height="4" fill="#f4c17a"/>
  <rect x="32" y="80" width="4" height="4" fill="#d4a456"/>

  <!-- "Zzz" sleep indicator -->
  <rect x="52" y="40" width="4" height="4" fill="#88aaff"/>
  <rect x="56" y="40" width="4" height="4" fill="#88aaff"/>
  <rect x="56" y="44" width="4" height="4" fill="#88aaff"/>
  <rect x="52" y="44" width="4" height="4" fill="#88aaff"/>
</svg>
