<?xml version="1.0" encoding="UTF-8"?>
<svg xmlns="http://www.w3.org/2000/svg" viewBox="0 0 64 128" width="64" height="128" shape-rendering="crispEdges">
  <!-- 16-bit Pixel Art Hero Warrior - CASTING MAGIC - Arms raised, mystical energy -->

  <!-- Magic sparkles above head -->
  <rect x="40" y="0" width="4" height="4" fill="#ffff44"/>
  <rect x="52" y="4" width="4" height="4" fill="#88ffff"/>
  <rect x="44" y="8" width="4" height="4" fill="#ff88ff"/>

  <!-- Row 0-1: Helmet Plume -->
  <rect x="28" y="12" width="4" height="4" fill="#a68b29"/>
  <rect x="32" y="12" width="4" height="4" fill="#d4af37"/>
  <rect x="36" y="12" width="4" height="4" fill="#f4d03f"/>
  <rect x="40" y="12" width="4" height="4" fill="#d4af37"/>

  <!-- Row 2: Helmet Top -->
  <rect x="24" y="16" width="4" height="4" fill="#3d4866"/>
  <rect x="28" y="16" width="4" height="4" fill="#5a6988"/>
  <rect x="32" y="16" width="4" height="4" fill="#8899bb"/>
  <rect x="36" y="16" width="4" height="4" fill="#5a6988"/>
  <rect x="40" y="16" width="4" height="4" fill="#3d4866"/>

  <!-- Row 3: Helmet Side -->
  <rect x="24" y="20" width="4" height="4" fill="#3d4866"/>
  <rect x="28" y="20" width="4" height="4" fill="#5a6988"/>
  <rect x="32" y="20" width="4" height="4" fill="#5a6988"/>
  <rect x="36" y="20" width="4" height="4" fill="#8899bb"/>
  <rect x="40" y="20" width="4" height="4" fill="#5a6988"/>
  <rect x="44" y="20" width="4" height="4" fill="#3d4866"/>

  <!-- Row 4: Helmet Visor -->
  <rect x="24" y="24" width="4" height="4" fill="#3d4866"/>
  <rect x="28" y="24" width="4" height="4" fill="#5a6988"/>
  <rect x="32" y="24" width="4" height="4" fill="#d4af37"/>
  <rect x="36" y="24" width="4" height="4" fill="#d4af37"/>
  <rect x="40" y="24" width="4" height="4" fill="#5a6988"/>
  <rect x="44" y="24" width="4" height="4" fill="#3d4866"/>

  <!-- Row 5: Face - focused concentration -->
  <rect x="24" y="28" width="4" height="4" fill="#3d4866"/>
  <rect x="28" y="28" width="4" height="4" fill="#d4a456"/>
  <rect x="32" y="28" width="4" height="4" fill="#f4c17a"/>
  <rect x="36" y="28" width="4" height="4" fill="#4488ff"/>
  <rect x="40" y="28" width="4" height="4" fill="#f4c17a"/>
  <rect x="44" y="28" width="4" height="4" fill="#d4a456"/>

  <!-- Row 6: Face - determined -->
  <rect x="24" y="32" width="4" height="4" fill="#3d4866"/>
  <rect x="28" y="32" width="4" height="4" fill="#d4a456"/>
  <rect x="32" y="32" width="4" height="4" fill="#f4c17a"/>
  <rect x="36" y="32" width="4" height="4" fill="#f4c17a"/>
  <rect x="40" y="32" width="4" height="4" fill="#f4c17a"/>
  <rect x="44" y="32" width="4" height="4" fill="#d4a456"/>

  <!-- Row 7: Chin/Neck -->
  <rect x="28" y="36" width="4" height="4" fill="#3d4866"/>
  <rect x="32" y="36" width="4" height="4" fill="#d4a456"/>
  <rect x="36" y="36" width="4" height="4" fill="#f4c17a"/>
  <rect x="40" y="36" width="4" height="4" fill="#3d4866"/>

  <!-- Row 8: Shoulders - arms raised -->
  <rect x="8" y="40" width="4" height="4" fill="#d4a456"/>
  <rect x="12" y="40" width="4" height="4" fill="#5a6988"/>
  <rect x="16" y="40" width="4" height="4" fill="#c23a3a"/>
  <rect x="20" y="40" width="4" height="4" fill="#c23a3a"/>
  <rect x="24" y="40" width="4" height="4" fill="#5a6988"/>
  <rect x="28" y="40" width="4" height="4" fill="#d4af37"/>
  <rect x="32" y="40" width="4" height="4" fill="#5a6988"/>
  <rect x="36" y="40" width="4" height="4" fill="#8899bb"/>
  <rect x="40" y="40" width="4" height="4" fill="#5a6988"/>
  <rect x="44" y="40" width="4" height="4" fill="#c23a3a"/>
  <rect x="48" y="40" width="4" height="4" fill="#c23a3a"/>
  <rect x="52" y="40" width="4" height="4" fill="#5a6988"/>
  <rect x="56" y="40" width="4" height="4" fill="#d4a456"/>

  <!-- Arms raised up - left arm -->
  <rect x="4" y="36" width="4" height="4" fill="#f4c17a"/>
  <rect x="4" y="32" width="4" height="4" fill="#d4a456"/>
  <rect x="4" y="28" width="4" height="4" fill="#f4c17a"/>
  <rect x="4" y="24" width="4" height="4" fill="#d4a456"/>
  <!-- Magic glow on left hand -->
  <rect x="0" y="20" width="4" height="4" fill="#88ffff"/>
  <rect x="4" y="20" width="4" height="4" fill="#ffffff"/>
  <rect x="8" y="20" width="4" height="4" fill="#88ffff"/>
  <rect x="4" y="16" width="4" height="4" fill="#44ffff"/>

  <!-- Arms raised up - right arm -->
  <rect x="56" y="36" width="4" height="4" fill="#f4c17a"/>
  <rect x="56" y="32" width="4" height="4" fill="#d4a456"/>
  <rect x="56" y="28" width="4" height="4" fill="#f4c17a"/>
  <rect x="56" y="24" width="4" height="4" fill="#d4a456"/>
  <!-- Magic glow on right hand -->
  <rect x="52" y="20" width="4" height="4" fill="#ff88ff"/>
  <rect x="56" y="20" width="4" height="4" fill="#ffffff"/>
  <rect x="60" y="20" width="4" height="4" fill="#ff88ff"/>
  <rect x="56" y="16" width="4" height="4" fill="#ff44ff"/>

  <!-- Row 9: Torso -->
  <rect x="16" y="44" width="4" height="4" fill="#8c2828"/>
  <rect x="20" y="44" width="4" height="4" fill="#c23a3a"/>
  <rect x="24" y="44" width="4" height="4" fill="#5a6988"/>
  <rect x="28" y="44" width="4" height="4" fill="#f4d03f"/>
  <rect x="32" y="44" width="4" height="4" fill="#d4af37"/>
  <rect x="36" y="44" width="4" height="4" fill="#5a6988"/>
  <rect x="40" y="44" width="4" height="4" fill="#8899bb"/>
  <rect x="44" y="44" width="4" height="4" fill="#c23a3a"/>
  <rect x="48" y="44" width="4" height="4" fill="#8c2828"/>

  <!-- Row 10: Chest -->
  <rect x="16" y="48" width="4" height="4" fill="#8c2828"/>
  <rect x="20" y="48" width="4" height="4" fill="#c23a3a"/>
  <rect x="24" y="48" width="4" height="4" fill="#3d4866"/>
  <rect x="28" y="48" width="4" height="4" fill="#5a6988"/>
  <rect x="32" y="48" width="4" height="4" fill="#5a6988"/>
  <rect x="36" y="48" width="4" height="4" fill="#5a6988"/>
  <rect x="40" y="48" width="4" height="4" fill="#3d4866"/>
  <rect x="44" y="48" width="4" height="4" fill="#c23a3a"/>
  <rect x="48" y="48" width="4" height="4" fill="#8c2828"/>

  <!-- Row 11: Belt -->
  <rect x="20" y="52" width="4" height="4" fill="#3d4866"/>
  <rect x="24" y="52" width="4" height="4" fill="#8b4513"/>
  <rect x="28" y="52" width="4" height="4" fill="#f4d03f"/>
  <rect x="32" y="52" width="4" height="4" fill="#d4af37"/>
  <rect x="36" y="52" width="4" height="4" fill="#8b4513"/>
  <rect x="40" y="52" width="4" height="4" fill="#3d4866"/>

  <!-- Row 12: Hip -->
  <rect x="20" y="56" width="4" height="4" fill="#3d4866"/>
  <rect x="24" y="56" width="4" height="4" fill="#5a6988"/>
  <rect x="28" y="56" width="4" height="4" fill="#5a6988"/>
  <rect x="32" y="56" width="4" height="4" fill="#3d4866"/>
  <rect x="36" y="56" width="4" height="4" fill="#5a6988"/>
  <rect x="40" y="56" width="4" height="4" fill="#5a6988"/>

  <!-- Row 13: Upper legs -->
  <rect x="20" y="60" width="4" height="4" fill="#3d4866"/>
  <rect x="24" y="60" width="4" height="4" fill="#5a6988"/>
  <rect x="28" y="60" width="4" height="4" fill="#8899bb"/>
  <rect x="32" y="60" width="4" height="4" fill="#5a6988"/>
  <rect x="36" y="60" width="4" height="4" fill="#5a6988"/>
  <rect x="40" y="60" width="4" height="4" fill="#3d4866"/>

  <!-- Row 14: Thighs -->
  <rect x="20" y="64" width="4" height="4" fill="#5a6988"/>
  <rect x="24" y="64" width="4" height="4" fill="#5a6988"/>
  <rect x="28" y="64" width="4" height="4" fill="#3d4866"/>
  <rect x="32" y="64" width="4" height="4" fill="#5a6988"/>
  <rect x="36" y="64" width="4" height="4" fill="#8899bb"/>
  <rect x="40" y="64" width="4" height="4" fill="#5a6988"/>

  <!-- Row 15: Lower thigh -->
  <rect x="20" y="68" width="4" height="4" fill="#5a6988"/>
  <rect x="24" y="68" width="4" height="4" fill="#3d4866"/>
  <rect x="36" y="68" width="4" height="4" fill="#3d4866"/>
  <rect x="40" y="68" width="4" height="4" fill="#5a6988"/>

  <!-- Row 16: Knee -->
  <rect x="20" y="72" width="4" height="4" fill="#3d4866"/>
  <rect x="24" y="72" width="4" height="4" fill="#5a6988"/>
  <rect x="36" y="72" width="4" height="4" fill="#5a6988"/>
  <rect x="40" y="72" width="4" height="4" fill="#3d4866"/>

  <!-- Row 17: Knee guard -->
  <rect x="20" y="76" width="4" height="4" fill="#d4af37"/>
  <rect x="24" y="76" width="4" height="4" fill="#8899bb"/>
  <rect x="36" y="76" width="4" height="4" fill="#8899bb"/>
  <rect x="40" y="76" width="4" height="4" fill="#d4af37"/>

  <!-- Row 18: Shin -->
  <rect x="20" y="80" width="4" height="4" fill="#5a6988"/>
  <rect x="24" y="80" width="4" height="4" fill="#5a6988"/>
  <rect x="36" y="80" width="4" height="4" fill="#5a6988"/>
  <rect x="40" y="80" width="4" height="4" fill="#5a6988"/>

  <!-- Row 19: Lower shin -->
  <rect x="20" y="84" width="4" height="4" fill="#3d4866"/>
  <rect x="24" y="84" width="4" height="4" fill="#5a6988"/>
  <rect x="36" y="84" width="4" height="4" fill="#5a6988"/>
  <rect x="40" y="84" width="4" height="4" fill="#3d4866"/>

  <!-- Row 20: Ankle -->
  <rect x="20" y="88" width="4" height="4" fill="#5a6988"/>
  <rect x="24" y="88" width="4" height="4" fill="#3d4866"/>
  <rect x="36" y="88" width="4" height="4" fill="#3d4866"/>
  <rect x="40" y="88" width="4" height="4" fill="#5a6988"/>

  <!-- Row 21: Boot top -->
  <rect x="16" y="92" width="4" height="4" fill="#4a3728"/>
  <rect x="20" y="92" width="4" height="4" fill="#2d2218"/>
  <rect x="24" y="92" width="4" height="4" fill="#4a3728"/>
  <rect x="28" y="92" width="4" height="4" fill="#4a3728"/>
  <rect x="32" y="92" width="4" height="4" fill="#4a3728"/>
  <rect x="36" y="92" width="4" height="4" fill="#4a3728"/>
  <rect x="40" y="92" width="4" height="4" fill="#2d2218"/>
  <rect x="44" y="92" width="4" height="4" fill="#4a3728"/>

  <!-- Row 22: Boot -->
  <rect x="16" y="96" width="4" height="4" fill="#2d2218"/>
  <rect x="20" y="96" width="4" height="4" fill="#4a3728"/>
  <rect x="24" y="96" width="4" height="4" fill="#5a4030"/>
  <rect x="28" y="96" width="4" height="4" fill="#4a3728"/>
  <rect x="32" y="96" width="4" height="4" fill="#4a3728"/>
  <rect x="36" y="96" width="4" height="4" fill="#5a4030"/>
  <rect x="40" y="96" width="4" height="4" fill="#4a3728"/>
  <rect x="44" y="96" width="4" height="4" fill="#2d2218"/>

  <!-- Row 23: Boot sole -->
  <rect x="16" y="100" width="4" height="4" fill="#1a1510"/>
  <rect x="20" y="100" width="4" height="4" fill="#1a1510"/>
  <rect x="24" y="100" width="4" height="4" fill="#1a1510"/>
  <rect x="28" y="100" width="4" height="4" fill="#2d2218"/>
  <rect x="32" y="100" width="4" height="4" fill="#2d2218"/>
  <rect x="36" y="100" width="4" height="4" fill="#1a1510"/>
  <rect x="40" y="100" width="4" height="4" fill="#1a1510"/>
  <rect x="44" y="100" width="4" height="4" fill="#1a1510"/>
</svg>
