<?xml version="1.0" encoding="UTF-8"?>
<svg xmlns="http://www.w3.org/2000/svg" viewBox="0 0 64 128" width="64" height="128" shape-rendering="crispEdges">
  <!-- 16-bit Pixel Art Hero Warrior - AGGRESSIVE FIGHT STANCE - Low crouch, sword forward -->

  <!-- Row 0-1: Helmet Plume - leaning forward -->
  <rect x="32" y="4" width="4" height="4" fill="#d4af37"/>
  <rect x="36" y="4" width="4" height="4" fill="#f4d03f"/>
  <rect x="40" y="4" width="4" height="4" fill="#d4af37"/>
  <rect x="44" y="4" width="4" height="4" fill="#a68b29"/>

  <!-- Row 2: Helmet Plume flowing back -->
  <rect x="28" y="8" width="4" height="4" fill="#a68b29"/>
  <rect x="32" y="8" width="4" height="4" fill="#d4af37"/>
  <rect x="36" y="8" width="4" height="4" fill="#f4d03f"/>
  <rect x="40" y="8" width="4" height="4" fill="#f4d03f"/>
  <rect x="44" y="8" width="4" height="4" fill="#d4af37"/>
  <rect x="48" y="8" width="4" height="4" fill="#a68b29"/>

  <!-- Row 3: Helmet Top -->
  <rect x="28" y="12" width="4" height="4" fill="#3d4866"/>
  <rect x="32" y="12" width="4" height="4" fill="#5a6988"/>
  <rect x="36" y="12" width="4" height="4" fill="#8899bb"/>
  <rect x="40" y="12" width="4" height="4" fill="#5a6988"/>
  <rect x="44" y="12" width="4" height="4" fill="#3d4866"/>

  <!-- Row 4: Helmet Side -->
  <rect x="28" y="16" width="4" height="4" fill="#3d4866"/>
  <rect x="32" y="16" width="4" height="4" fill="#5a6988"/>
  <rect x="36" y="16" width="4" height="4" fill="#5a6988"/>
  <rect x="40" y="16" width="4" height="4" fill="#8899bb"/>
  <rect x="44" y="16" width="4" height="4" fill="#5a6988"/>
  <rect x="48" y="16" width="4" height="4" fill="#3d4866"/>

  <!-- Row 5: Helmet Visor - fierce look -->
  <rect x="28" y="20" width="4" height="4" fill="#3d4866"/>
  <rect x="32" y="20" width="4" height="4" fill="#5a6988"/>
  <rect x="36" y="20" width="4" height="4" fill="#5a6988"/>
  <rect x="40" y="20" width="4" height="4" fill="#d4af37"/>
  <rect x="44" y="20" width="4" height="4" fill="#d4af37"/>
  <rect x="48" y="20" width="4" height="4" fill="#3d4866"/>

  <!-- Row 6: Face - intense eye -->
  <rect x="28" y="24" width="4" height="4" fill="#3d4866"/>
  <rect x="32" y="24" width="4" height="4" fill="#5a6988"/>
  <rect x="36" y="24" width="4" height="4" fill="#d4a456"/>
  <rect x="40" y="24" width="4" height="4" fill="#f4c17a"/>
  <rect x="44" y="24" width="4" height="4" fill="#1a2530"/>
  <rect x="48" y="24" width="4" height="4" fill="#f4c17a"/>
  <rect x="52" y="24" width="4" height="4" fill="#d4a456"/>

  <!-- Row 7: Face - gritted teeth -->
  <rect x="28" y="28" width="4" height="4" fill="#3d4866"/>
  <rect x="32" y="28" width="4" height="4" fill="#3d4866"/>
  <rect x="36" y="28" width="4" height="4" fill="#d4a456"/>
  <rect x="40" y="28" width="4" height="4" fill="#f4c17a"/>
  <rect x="44" y="28" width="4" height="4" fill="#f4c17a"/>
  <rect x="48" y="28" width="4" height="4" fill="#f4c17a"/>
  <rect x="52" y="28" width="4" height="4" fill="#d4a456"/>

  <!-- Row 8: Chin/Neck - leaning forward -->
  <rect x="32" y="32" width="4" height="4" fill="#3d4866"/>
  <rect x="36" y="32" width="4" height="4" fill="#3d4866"/>
  <rect x="40" y="32" width="4" height="4" fill="#d4a456"/>
  <rect x="44" y="32" width="4" height="4" fill="#f4c17a"/>
  <rect x="48" y="32" width="4" height="4" fill="#3d4866"/>

  <!-- Row 9: Cape/Shoulder - dynamic -->
  <rect x="16" y="36" width="4" height="4" fill="#8c2828"/>
  <rect x="20" y="36" width="4" height="4" fill="#c23a3a"/>
  <rect x="24" y="36" width="4" height="4" fill="#c23a3a"/>
  <rect x="28" y="36" width="4" height="4" fill="#c23a3a"/>
  <rect x="32" y="36" width="4" height="4" fill="#5a6988"/>
  <rect x="36" y="36" width="4" height="4" fill="#5a6988"/>
  <rect x="40" y="36" width="4" height="4" fill="#d4af37"/>
  <rect x="44" y="36" width="4" height="4" fill="#5a6988"/>
  <rect x="48" y="36" width="4" height="4" fill="#8899bb"/>
  <rect x="52" y="36" width="4" height="4" fill="#5a6988"/>

  <!-- Row 10: Torso - crouched forward, arm extended -->
  <rect x="12" y="40" width="4" height="4" fill="#8c2828"/>
  <rect x="16" y="40" width="4" height="4" fill="#c23a3a"/>
  <rect x="20" y="40" width="4" height="4" fill="#c23a3a"/>
  <rect x="24" y="40" width="4" height="4" fill="#c23a3a"/>
  <rect x="28" y="40" width="4" height="4" fill="#3d4866"/>
  <rect x="32" y="40" width="4" height="4" fill="#5a6988"/>
  <rect x="36" y="40" width="4" height="4" fill="#d4af37"/>
  <rect x="40" y="40" width="4" height="4" fill="#5a6988"/>
  <rect x="44" y="40" width="4" height="4" fill="#8899bb"/>
  <rect x="48" y="40" width="4" height="4" fill="#5a6988"/>
  <rect x="52" y="40" width="4" height="4" fill="#5a6988"/>
  <rect x="56" y="40" width="4" height="4" fill="#d4a456"/>

  <!-- Row 11: Chest - emblem visible, sword arm forward -->
  <rect x="8" y="44" width="4" height="4" fill="#8c2828"/>
  <rect x="12" y="44" width="4" height="4" fill="#8c2828"/>
  <rect x="16" y="44" width="4" height="4" fill="#c23a3a"/>
  <rect x="20" y="44" width="4" height="4" fill="#c23a3a"/>
  <rect x="24" y="44" width="4" height="4" fill="#3d4866"/>
  <rect x="28" y="44" width="4" height="4" fill="#5a6988"/>
  <rect x="32" y="44" width="4" height="4" fill="#f4d03f"/>
  <rect x="36" y="44" width="4" height="4" fill="#d4af37"/>
  <rect x="40" y="44" width="4" height="4" fill="#5a6988"/>
  <rect x="44" y="44" width="4" height="4" fill="#5a6988"/>
  <rect x="48" y="44" width="4" height="4" fill="#3d4866"/>
  <rect x="52" y="44" width="4" height="4" fill="#f4c17a"/>
  <rect x="56" y="44" width="4" height="4" fill="#8b4513"/>
  <rect x="60" y="44" width="4" height="4" fill="#d4af37"/>

  <!-- Row 12: Lower chest - sword grip -->
  <rect x="8" y="48" width="4" height="4" fill="#8c2828"/>
  <rect x="12" y="48" width="4" height="4" fill="#c23a3a"/>
  <rect x="16" y="48" width="4" height="4" fill="#c23a3a"/>
  <rect x="20" y="48" width="4" height="4" fill="#3d4866"/>
  <rect x="24" y="48" width="4" height="4" fill="#5a6988"/>
  <rect x="28" y="48" width="4" height="4" fill="#d4af37"/>
  <rect x="32" y="48" width="4" height="4" fill="#5a6988"/>
  <rect x="36" y="48" width="4" height="4" fill="#5a6988"/>
  <rect x="40" y="48" width="4" height="4" fill="#3d4866"/>
  <rect x="44" y="48" width="4" height="4" fill="#5a6988"/>
  <rect x="48" y="48" width="4" height="4" fill="#d4a456"/>
  <rect x="52" y="48" width="4" height="4" fill="#f4c17a"/>
  <rect x="56" y="48" width="4" height="4" fill="#e8e8e8"/>
  <rect x="60" y="48" width="4" height="4" fill="#b0b0b0"/>

  <!-- Row 13: Belt - athletic crouch -->
  <rect x="12" y="52" width="4" height="4" fill="#8c2828"/>
  <rect x="16" y="52" width="4" height="4" fill="#c23a3a"/>
  <rect x="20" y="52" width="4" height="4" fill="#3d4866"/>
  <rect x="24" y="52" width="4" height="4" fill="#8b4513"/>
  <rect x="28" y="52" width="4" height="4" fill="#f4d03f"/>
  <rect x="32" y="52" width="4" height="4" fill="#d4af37"/>
  <rect x="36" y="52" width="4" height="4" fill="#8b4513"/>
  <rect x="40" y="52" width="4" height="4" fill="#5a6988"/>
  <rect x="44" y="52" width="4" height="4" fill="#5a6988"/>
  <rect x="48" y="52" width="4" height="4" fill="#3d4866"/>
  <rect x="52" y="52" width="4" height="4" fill="#b0b0b0"/>
  <rect x="56" y="52" width="4" height="4" fill="#e8e8e8"/>
  <rect x="60" y="52" width="4" height="4" fill="#b0b0b0"/>

  <!-- Row 14: Hip - deep crouch, sword extended -->
  <rect x="12" y="56" width="4" height="4" fill="#8c2828"/>
  <rect x="16" y="56" width="4" height="4" fill="#c23a3a"/>
  <rect x="20" y="56" width="4" height="4" fill="#3d4866"/>
  <rect x="24" y="56" width="4" height="4" fill="#3d4866"/>
  <rect x="28" y="56" width="4" height="4" fill="#5a6988"/>
  <rect x="32" y="56" width="4" height="4" fill="#5a6988"/>
  <rect x="36" y="56" width="4" height="4" fill="#3d4866"/>
  <rect x="40" y="56" width="4" height="4" fill="#5a6988"/>
  <rect x="44" y="56" width="4" height="4" fill="#5a6988"/>
  <rect x="48" y="56" width="4" height="4" fill="#e8e8e8"/>
  <rect x="52" y="56" width="4" height="4" fill="#b0b0b0"/>
  <rect x="56" y="56" width="4" height="4" fill="#e8e8e8"/>
  <rect x="60" y="56" width="4" height="4" fill="#b0b0b0"/>

  <!-- Row 15: Upper legs - wide athletic stance -->
  <rect x="8" y="60" width="4" height="4" fill="#8c2828"/>
  <rect x="12" y="60" width="4" height="4" fill="#c23a3a"/>
  <rect x="16" y="60" width="4" height="4" fill="#8c2828"/>
  <rect x="20" y="60" width="4" height="4" fill="#3d4866"/>
  <rect x="24" y="60" width="4" height="4" fill="#5a6988"/>
  <rect x="28" y="60" width="4" height="4" fill="#8899bb"/>
  <rect x="32" y="60" width="4" height="4" fill="#5a6988"/>
  <rect x="36" y="60" width="4" height="4" fill="#5a6988"/>
  <rect x="40" y="60" width="4" height="4" fill="#3d4866"/>
  <rect x="44" y="60" width="4" height="4" fill="#5a6988"/>
  <rect x="48" y="60" width="4" height="4" fill="#b0b0b0"/>
  <rect x="52" y="60" width="4" height="4" fill="#e8e8e8"/>
  <rect x="56" y="60" width="4" height="4" fill="#b0b0b0"/>
  <rect x="60" y="60" width="4" height="4" fill="#c0c0c0"/>

  <!-- Row 16: Thighs spread - sword tip -->
  <rect x="4" y="64" width="4" height="4" fill="#8c2828"/>
  <rect x="8" y="64" width="4" height="4" fill="#3d4866"/>
  <rect x="12" y="64" width="4" height="4" fill="#5a6988"/>
  <rect x="16" y="64" width="4" height="4" fill="#5a6988"/>
  <rect x="20" y="64" width="4" height="4" fill="#3d4866"/>
  <rect x="24" y="64" width="4" height="4" fill="#5a6988"/>
  <rect x="28" y="64" width="4" height="4" fill="#5a6988"/>
  <rect x="32" y="64" width="4" height="4" fill="#3d4866"/>
  <rect x="36" y="64" width="4" height="4" fill="#5a6988"/>
  <rect x="40" y="64" width="4" height="4" fill="#8899bb"/>
  <rect x="44" y="64" width="4" height="4" fill="#5a6988"/>
  <rect x="48" y="64" width="4" height="4" fill="#5a6988"/>
  <rect x="52" y="64" width="4" height="4" fill="#b0b0b0"/>
  <rect x="56" y="64" width="4" height="4" fill="#e8e8e8"/>
  <rect x="60" y="64" width="4" height="4" fill="#b0b0b0"/>

  <!-- Row 17: Mid thigh -->
  <rect x="4" y="68" width="4" height="4" fill="#3d4866"/>
  <rect x="8" y="68" width="4" height="4" fill="#5a6988"/>
  <rect x="12" y="68" width="4" height="4" fill="#5a6988"/>
  <rect x="16" y="68" width="4" height="4" fill="#3d4866"/>
  <rect x="20" y="68" width="4" height="4" fill="#5a6988"/>
  <rect x="24" y="68" width="4" height="4" fill="#3d4866"/>
  <rect x="36" y="68" width="4" height="4" fill="#3d4866"/>
  <rect x="40" y="68" width="4" height="4" fill="#5a6988"/>
  <rect x="44" y="68" width="4" height="4" fill="#5a6988"/>
  <rect x="48" y="68" width="4" height="4" fill="#3d4866"/>
  <rect x="52" y="68" width="4" height="4" fill="#5a6988"/>
  <rect x="56" y="68" width="4" height="4" fill="#b0b0b0"/>

  <!-- Row 18: Lower thigh -->
  <rect x="4" y="72" width="4" height="4" fill="#3d4866"/>
  <rect x="8" y="72" width="4" height="4" fill="#5a6988"/>
  <rect x="12" y="72" width="4" height="4" fill="#3d4866"/>
  <rect x="16" y="72" width="4" height="4" fill="#5a6988"/>
  <rect x="20" y="72" width="4" height="4" fill="#5a6988"/>
  <rect x="40" y="72" width="4" height="4" fill="#5a6988"/>
  <rect x="44" y="72" width="4" height="4" fill="#5a6988"/>
  <rect x="48" y="72" width="4" height="4" fill="#5a6988"/>
  <rect x="52" y="72" width="4" height="4" fill="#3d4866"/>
  <rect x="56" y="72" width="4" height="4" fill="#e8e8e8"/>

  <!-- Row 19: Knee area -->
  <rect x="4" y="76" width="4" height="4" fill="#5a6988"/>
  <rect x="8" y="76" width="4" height="4" fill="#3d4866"/>
  <rect x="12" y="76" width="4" height="4" fill="#5a6988"/>
  <rect x="16" y="76" width="4" height="4" fill="#8899bb"/>
  <rect x="20" y="76" width="4" height="4" fill="#d4af37"/>
  <rect x="40" y="76" width="4" height="4" fill="#d4af37"/>
  <rect x="44" y="76" width="4" height="4" fill="#8899bb"/>
  <rect x="48" y="76" width="4" height="4" fill="#5a6988"/>
  <rect x="52" y="76" width="4" height="4" fill="#5a6988"/>

  <!-- Row 20: Shin -->
  <rect x="4" y="80" width="4" height="4" fill="#5a6988"/>
  <rect x="8" y="80" width="4" height="4" fill="#5a6988"/>
  <rect x="12" y="80" width="4" height="4" fill="#8899bb"/>
  <rect x="16" y="80" width="4" height="4" fill="#5a6988"/>
  <rect x="20" y="80" width="4" height="4" fill="#5a6988"/>
  <rect x="40" y="80" width="4" height="4" fill="#5a6988"/>
  <rect x="44" y="80" width="4" height="4" fill="#5a6988"/>
  <rect x="48" y="80" width="4" height="4" fill="#8899bb"/>
  <rect x="52" y="80" width="4" height="4" fill="#5a6988"/>

  <!-- Row 21: Lower shin -->
  <rect x="4" y="84" width="4" height="4" fill="#3d4866"/>
  <rect x="8" y="84" width="4" height="4" fill="#5a6988"/>
  <rect x="12" y="84" width="4" height="4" fill="#5a6988"/>
  <rect x="16" y="84" width="4" height="4" fill="#5a6988"/>
  <rect x="20" y="84" width="4" height="4" fill="#3d4866"/>
  <rect x="40" y="84" width="4" height="4" fill="#3d4866"/>
  <rect x="44" y="84" width="4" height="4" fill="#5a6988"/>
  <rect x="48" y="84" width="4" height="4" fill="#5a6988"/>
  <rect x="52" y="84" width="4" height="4" fill="#5a6988"/>
  <rect x="56" y="84" width="4" height="4" fill="#3d4866"/>

  <!-- Row 22: Ankle -->
  <rect x="4" y="88" width="4" height="4" fill="#5a6988"/>
  <rect x="8" y="88" width="4" height="4" fill="#5a6988"/>
  <rect x="12" y="88" width="4" height="4" fill="#3d4866"/>
  <rect x="16" y="88" width="4" height="4" fill="#5a6988"/>
  <rect x="44" y="88" width="4" height="4" fill="#5a6988"/>
  <rect x="48" y="88" width="4" height="4" fill="#3d4866"/>
  <rect x="52" y="88" width="4" height="4" fill="#5a6988"/>
  <rect x="56" y="88" width="4" height="4" fill="#5a6988"/>

  <!-- Row 23: Boot top - wide stance -->
  <rect x="0" y="92" width="4" height="4" fill="#4a3728"/>
  <rect x="4" y="92" width="4" height="4" fill="#4a3728"/>
  <rect x="8" y="92" width="4" height="4" fill="#2d2218"/>
  <rect x="12" y="92" width="4" height="4" fill="#4a3728"/>
  <rect x="16" y="92" width="4" height="4" fill="#4a3728"/>
  <rect x="44" y="92" width="4" height="4" fill="#4a3728"/>
  <rect x="48" y="92" width="4" height="4" fill="#4a3728"/>
  <rect x="52" y="92" width="4" height="4" fill="#2d2218"/>
  <rect x="56" y="92" width="4" height="4" fill="#4a3728"/>
  <rect x="60" y="92" width="4" height="4" fill="#4a3728"/>

  <!-- Row 24: Boot -->
  <rect x="0" y="96" width="4" height="4" fill="#4a3728"/>
  <rect x="4" y="96" width="4" height="4" fill="#2d2218"/>
  <rect x="8" y="96" width="4" height="4" fill="#4a3728"/>
  <rect x="12" y="96" width="4" height="4" fill="#5a4030"/>
  <rect x="16" y="96" width="4" height="4" fill="#4a3728"/>
  <rect x="20" y="96" width="4" height="4" fill="#2d2218"/>
  <rect x="44" y="96" width="4" height="4" fill="#2d2218"/>
  <rect x="48" y="96" width="4" height="4" fill="#4a3728"/>
  <rect x="52" y="96" width="4" height="4" fill="#5a4030"/>
  <rect x="56" y="96" width="4" height="4" fill="#4a3728"/>
  <rect x="60" y="96" width="4" height="4" fill="#2d2218"/>

  <!-- Row 25: Boot sole -->
  <rect x="0" y="100" width="4" height="4" fill="#2d2218"/>
  <rect x="4" y="100" width="4" height="4" fill="#1a1510"/>
  <rect x="8" y="100" width="4" height="4" fill="#1a1510"/>
  <rect x="12" y="100" width="4" height="4" fill="#1a1510"/>
  <rect x="16" y="100" width="4" height="4" fill="#2d2218"/>
  <rect x="20" y="100" width="4" height="4" fill="#2d2218"/>
  <rect x="44" y="100" width="4" height="4" fill="#2d2218"/>
  <rect x="48" y="100" width="4" height="4" fill="#2d2218"/>
  <rect x="52" y="100" width="4" height="4" fill="#1a1510"/>
  <rect x="56" y="100" width="4" height="4" fill="#1a1510"/>
  <rect x="60" y="100" width="4" height="4" fill="#1a1510"/>
</svg>
