<?xml version="1.0" encoding="UTF-8"?>
<svg xmlns="http://www.w3.org/2000/svg" viewBox="0 0 64 128" width="64" height="128" shape-rendering="crispEdges">
  <!-- 16-bit Pixel Art Hero Warrior - Facing Left - 4x4 pixel blocks -->

  <!-- Row 0: Helmet Plume Top -->
  <rect x="20" y="0" width="4" height="4" fill="#d4af37"/>
  <rect x="24" y="0" width="4" height="4" fill="#d4af37"/>
  <rect x="28" y="0" width="4" height="4" fill="#f4d03f"/>
  <rect x="32" y="0" width="4" height="4" fill="#d4af37"/>

  <!-- Row 1: Helmet Plume -->
  <rect x="16" y="4" width="4" height="4" fill="#a68b29"/>
  <rect x="20" y="4" width="4" height="4" fill="#d4af37"/>
  <rect x="24" y="4" width="4" height="4" fill="#f4d03f"/>
  <rect x="28" y="4" width="4" height="4" fill="#f4d03f"/>
  <rect x="32" y="4" width="4" height="4" fill="#d4af37"/>
  <rect x="36" y="4" width="4" height="4" fill="#a68b29"/>

  <!-- Row 2: Helmet Top -->
  <rect x="20" y="8" width="4" height="4" fill="#3d4866"/>
  <rect x="24" y="8" width="4" height="4" fill="#5a6988"/>
  <rect x="28" y="8" width="4" height="4" fill="#8899bb"/>
  <rect x="32" y="8" width="4" height="4" fill="#5a6988"/>
  <rect x="36" y="8" width="4" height="4" fill="#3d4866"/>

  <!-- Row 3: Helmet Side -->
  <rect x="16" y="12" width="4" height="4" fill="#3d4866"/>
  <rect x="20" y="12" width="4" height="4" fill="#5a6988"/>
  <rect x="24" y="12" width="4" height="4" fill="#8899bb"/>
  <rect x="28" y="12" width="4" height="4" fill="#5a6988"/>
  <rect x="32" y="12" width="4" height="4" fill="#5a6988"/>
  <rect x="36" y="12" width="4" height="4" fill="#3d4866"/>

  <!-- Row 4: Helmet Visor -->
  <rect x="12" y="16" width="4" height="4" fill="#3d4866"/>
  <rect x="16" y="16" width="4" height="4" fill="#d4af37"/>
  <rect x="20" y="16" width="4" height="4" fill="#d4af37"/>
  <rect x="24" y="16" width="4" height="4" fill="#5a6988"/>
  <rect x="28" y="16" width="4" height="4" fill="#5a6988"/>
  <rect x="32" y="16" width="4" height="4" fill="#5a6988"/>
  <rect x="36" y="16" width="4" height="4" fill="#3d4866"/>

  <!-- Row 5: Face Profile - Eye -->
  <rect x="8" y="20" width="4" height="4" fill="#3d4866"/>
  <rect x="12" y="20" width="4" height="4" fill="#f4c17a"/>
  <rect x="16" y="20" width="4" height="4" fill="#2c3e50"/>
  <rect x="20" y="20" width="4" height="4" fill="#f4c17a"/>
  <rect x="24" y="20" width="4" height="4" fill="#d4a456"/>
  <rect x="28" y="20" width="4" height="4" fill="#5a6988"/>
  <rect x="32" y="20" width="4" height="4" fill="#5a6988"/>
  <rect x="36" y="20" width="4" height="4" fill="#3d4866"/>

  <!-- Row 6: Face Profile - Nose -->
  <rect x="4" y="24" width="4" height="4" fill="#d4a456"/>
  <rect x="8" y="24" width="4" height="4" fill="#f4c17a"/>
  <rect x="12" y="24" width="4" height="4" fill="#f4c17a"/>
  <rect x="16" y="24" width="4" height="4" fill="#f4c17a"/>
  <rect x="20" y="24" width="4" height="4" fill="#d4a456"/>
  <rect x="24" y="24" width="4" height="4" fill="#3d4866"/>
  <rect x="28" y="24" width="4" height="4" fill="#5a6988"/>
  <rect x="32" y="24" width="4" height="4" fill="#5a6988"/>
  <rect x="36" y="24" width="4" height="4" fill="#3d4866"/>

  <!-- Row 7: Face Profile - Chin -->
  <rect x="8" y="28" width="4" height="4" fill="#3d4866"/>
  <rect x="12" y="28" width="4" height="4" fill="#f4c17a"/>
  <rect x="16" y="28" width="4" height="4" fill="#d4a456"/>
  <rect x="20" y="28" width="4" height="4" fill="#3d4866"/>
  <rect x="24" y="28" width="4" height="4" fill="#3d4866"/>
  <rect x="28" y="28" width="4" height="4" fill="#5a6988"/>
  <rect x="32" y="28" width="4" height="4" fill="#3d4866"/>

  <!-- Row 8: Neck -->
  <rect x="12" y="32" width="4" height="4" fill="#3d4866"/>
  <rect x="16" y="32" width="4" height="4" fill="#f4c17a"/>
  <rect x="20" y="32" width="4" height="4" fill="#d4a456"/>
  <rect x="24" y="32" width="4" height="4" fill="#3d4866"/>
  <rect x="28" y="32" width="4" height="4" fill="#c23a3a"/>
  <rect x="32" y="32" width="4" height="4" fill="#c23a3a"/>
  <rect x="36" y="32" width="4" height="4" fill="#8c2828"/>

  <!-- Row 9: Shoulder -->
  <rect x="8" y="36" width="4" height="4" fill="#8899bb"/>
  <rect x="12" y="36" width="4" height="4" fill="#5a6988"/>
  <rect x="16" y="36" width="4" height="4" fill="#d4af37"/>
  <rect x="20" y="36" width="4" height="4" fill="#5a6988"/>
  <rect x="24" y="36" width="4" height="4" fill="#5a6988"/>
  <rect x="28" y="36" width="4" height="4" fill="#c23a3a"/>
  <rect x="32" y="36" width="4" height="4" fill="#c23a3a"/>
  <rect x="36" y="36" width="4" height="4" fill="#c23a3a"/>
  <rect x="40" y="36" width="4" height="4" fill="#8c2828"/>

  <!-- Row 10: Upper Arm / Chest -->
  <rect x="4" y="40" width="4" height="4" fill="#5a6988"/>
  <rect x="8" y="40" width="4" height="4" fill="#5a6988"/>
  <rect x="12" y="40" width="4" height="4" fill="#8899bb"/>
  <rect x="16" y="40" width="4" height="4" fill="#5a6988"/>
  <rect x="20" y="40" width="4" height="4" fill="#d4af37"/>
  <rect x="24" y="40" width="4" height="4" fill="#5a6988"/>
  <rect x="28" y="40" width="4" height="4" fill="#3d4866"/>
  <rect x="32" y="40" width="4" height="4" fill="#c23a3a"/>
  <rect x="36" y="40" width="4" height="4" fill="#c23a3a"/>
  <rect x="40" y="40" width="4" height="4" fill="#8c2828"/>

  <!-- Row 11: Arm / Chest Emblem -->
  <rect x="4" y="44" width="4" height="4" fill="#3d4866"/>
  <rect x="8" y="44" width="4" height="4" fill="#5a6988"/>
  <rect x="12" y="44" width="4" height="4" fill="#5a6988"/>
  <rect x="16" y="44" width="4" height="4" fill="#d4af37"/>
  <rect x="20" y="44" width="4" height="4" fill="#f4d03f"/>
  <rect x="24" y="44" width="4" height="4" fill="#5a6988"/>
  <rect x="28" y="44" width="4" height="4" fill="#3d4866"/>
  <rect x="32" y="44" width="4" height="4" fill="#c23a3a"/>
  <rect x="36" y="44" width="4" height="4" fill="#8c2828"/>
  <rect x="40" y="44" width="4" height="4" fill="#8c2828"/>

  <!-- Row 12: Lower Arm / Chest -->
  <rect x="4" y="48" width="4" height="4" fill="#5a6988"/>
  <rect x="8" y="48" width="4" height="4" fill="#3d4866"/>
  <rect x="12" y="48" width="4" height="4" fill="#5a6988"/>
  <rect x="16" y="48" width="4" height="4" fill="#5a6988"/>
  <rect x="20" y="48" width="4" height="4" fill="#d4af37"/>
  <rect x="24" y="48" width="4" height="4" fill="#5a6988"/>
  <rect x="28" y="48" width="4" height="4" fill="#3d4866"/>
  <rect x="32" y="48" width="4" height="4" fill="#c23a3a"/>
  <rect x="36" y="48" width="4" height="4" fill="#8c2828"/>

  <!-- Row 13: Belt -->
  <rect x="4" y="52" width="4" height="4" fill="#5a6988"/>
  <rect x="8" y="52" width="4" height="4" fill="#5a6988"/>
  <rect x="12" y="52" width="4" height="4" fill="#8b4513"/>
  <rect x="16" y="52" width="4" height="4" fill="#d4af37"/>
  <rect x="20" y="52" width="4" height="4" fill="#f4d03f"/>
  <rect x="24" y="52" width="4" height="4" fill="#8b4513"/>
  <rect x="28" y="52" width="4" height="4" fill="#3d4866"/>
  <rect x="32" y="52" width="4" height="4" fill="#c23a3a"/>
  <rect x="36" y="52" width="4" height="4" fill="#8c2828"/>

  <!-- Row 14: Sword Arm -->
  <rect x="0" y="56" width="4" height="4" fill="#e8e8e8"/>
  <rect x="4" y="56" width="4" height="4" fill="#d4af37"/>
  <rect x="8" y="56" width="4" height="4" fill="#f4c17a"/>
  <rect x="12" y="56" width="4" height="4" fill="#3d4866"/>
  <rect x="16" y="56" width="4" height="4" fill="#3d4866"/>
  <rect x="20" y="56" width="4" height="4" fill="#3d4866"/>
  <rect x="24" y="56" width="4" height="4" fill="#3d4866"/>
  <rect x="28" y="56" width="4" height="4" fill="#3d4866"/>
  <rect x="32" y="56" width="4" height="4" fill="#c23a3a"/>
  <rect x="36" y="56" width="4" height="4" fill="#8c2828"/>

  <!-- Row 15: Hand with Sword -->
  <rect x="0" y="60" width="4" height="4" fill="#b0b0b0"/>
  <rect x="4" y="60" width="4" height="4" fill="#8b4513"/>
  <rect x="8" y="60" width="4" height="4" fill="#f4c17a"/>
  <rect x="12" y="60" width="4" height="4" fill="#d4a456"/>
  <rect x="16" y="60" width="4" height="4" fill="#c23a3a"/>
  <rect x="20" y="60" width="4" height="4" fill="#8c2828"/>
  <rect x="24" y="60" width="4" height="4" fill="#8c2828"/>
  <rect x="28" y="60" width="4" height="4" fill="#8c2828"/>
  <rect x="32" y="60" width="4" height="4" fill="#c23a3a"/>
  <rect x="36" y="60" width="4" height="4" fill="#8c2828"/>

  <!-- Row 16: Sword continues -->
  <rect x="0" y="64" width="4" height="4" fill="#e8e8e8"/>
  <rect x="4" y="64" width="4" height="4" fill="#d4af37"/>
  <rect x="16" y="64" width="4" height="4" fill="#8c2828"/>
  <rect x="20" y="64" width="4" height="4" fill="#8c2828"/>
  <rect x="24" y="64" width="4" height="4" fill="#8c2828"/>
  <rect x="28" y="64" width="4" height="4" fill="#8c2828"/>
  <rect x="32" y="64" width="4" height="4" fill="#8c2828"/>

  <!-- Row 17: Upper Leg -->
  <rect x="0" y="68" width="4" height="4" fill="#b0b0b0"/>
  <rect x="12" y="68" width="4" height="4" fill="#5a6988"/>
  <rect x="16" y="68" width="4" height="4" fill="#8899bb"/>
  <rect x="20" y="68" width="4" height="4" fill="#5a6988"/>
  <rect x="24" y="68" width="4" height="4" fill="#5a6988"/>
  <rect x="28" y="68" width="4" height="4" fill="#3d4866"/>
  <rect x="32" y="68" width="4" height="4" fill="#8c2828"/>

  <!-- Row 18: Tasset -->
  <rect x="0" y="72" width="4" height="4" fill="#e8e8e8"/>
  <rect x="12" y="72" width="4" height="4" fill="#5a6988"/>
  <rect x="16" y="72" width="4" height="4" fill="#5a6988"/>
  <rect x="20" y="72" width="4" height="4" fill="#3d4866"/>
  <rect x="24" y="72" width="4" height="4" fill="#5a6988"/>
  <rect x="28" y="72" width="4" height="4" fill="#3d4866"/>
  <rect x="32" y="72" width="4" height="4" fill="#c23a3a"/>

  <!-- Row 19: Thigh -->
  <rect x="0" y="76" width="4" height="4" fill="#b0b0b0"/>
  <rect x="12" y="76" width="4" height="4" fill="#3d4866"/>
  <rect x="16" y="76" width="4" height="4" fill="#5a6988"/>
  <rect x="20" y="76" width="4" height="4" fill="#5a6988"/>
  <rect x="24" y="76" width="4" height="4" fill="#3d4866"/>
  <rect x="28" y="76" width="4" height="4" fill="#3d4866"/>
  <rect x="32" y="76" width="4" height="4" fill="#c23a3a"/>

  <!-- Row 20: Lower Thigh -->
  <rect x="0" y="80" width="4" height="4" fill="#e8e8e8"/>
  <rect x="12" y="80" width="4" height="4" fill="#5a6988"/>
  <rect x="16" y="80" width="4" height="4" fill="#3d4866"/>
  <rect x="20" y="80" width="4" height="4" fill="#5a6988"/>
  <rect x="24" y="80" width="4" height="4" fill="#5a6988"/>
  <rect x="28" y="80" width="4" height="4" fill="#3d4866"/>
  <rect x="32" y="80" width="4" height="4" fill="#8c2828"/>

  <!-- Row 21: Above Knee -->
  <rect x="0" y="84" width="4" height="4" fill="#b0b0b0"/>
  <rect x="12" y="84" width="4" height="4" fill="#5a6988"/>
  <rect x="16" y="84" width="4" height="4" fill="#5a6988"/>
  <rect x="20" y="84" width="4" height="4" fill="#3d4866"/>
  <rect x="24" y="84" width="4" height="4" fill="#5a6988"/>
  <rect x="28" y="84" width="4" height="4" fill="#3d4866"/>
  <rect x="32" y="84" width="4" height="4" fill="#8c2828"/>

  <!-- Row 22: Knee Guard -->
  <rect x="0" y="88" width="4" height="4" fill="#e8e8e8"/>
  <rect x="8" y="88" width="4" height="4" fill="#d4af37"/>
  <rect x="12" y="88" width="4" height="4" fill="#5a6988"/>
  <rect x="16" y="88" width="4" height="4" fill="#8899bb"/>
  <rect x="20" y="88" width="4" height="4" fill="#5a6988"/>
  <rect x="24" y="88" width="4" height="4" fill="#5a6988"/>
  <rect x="28" y="88" width="4" height="4" fill="#3d4866"/>
  <rect x="32" y="88" width="4" height="4" fill="#c23a3a"/>

  <!-- Row 23: Shin -->
  <rect x="0" y="92" width="4" height="4" fill="#b0b0b0"/>
  <rect x="12" y="92" width="4" height="4" fill="#5a6988"/>
  <rect x="16" y="92" width="4" height="4" fill="#5a6988"/>
  <rect x="20" y="92" width="4" height="4" fill="#8899bb"/>
  <rect x="24" y="92" width="4" height="4" fill="#5a6988"/>
  <rect x="28" y="92" width="4" height="4" fill="#3d4866"/>
  <rect x="32" y="92" width="4" height="4" fill="#8c2828"/>

  <!-- Row 24: Lower Shin -->
  <rect x="0" y="96" width="4" height="4" fill="#e8e8e8"/>
  <rect x="12" y="96" width="4" height="4" fill="#3d4866"/>
  <rect x="16" y="96" width="4" height="4" fill="#5a6988"/>
  <rect x="20" y="96" width="4" height="4" fill="#5a6988"/>
  <rect x="24" y="96" width="4" height="4" fill="#5a6988"/>
  <rect x="28" y="96" width="4" height="4" fill="#3d4866"/>
  <rect x="32" y="96" width="4" height="4" fill="#8c2828"/>

  <!-- Row 25: Ankle -->
  <rect x="0" y="100" width="4" height="4" fill="#b0b0b0"/>
  <rect x="12" y="100" width="4" height="4" fill="#5a6988"/>
  <rect x="16" y="100" width="4" height="4" fill="#3d4866"/>
  <rect x="20" y="100" width="4" height="4" fill="#5a6988"/>
  <rect x="24" y="100" width="4" height="4" fill="#5a6988"/>
  <rect x="28" y="100" width="4" height="4" fill="#3d4866"/>
  <rect x="32" y="100" width="4" height="4" fill="#c23a3a"/>

  <!-- Row 26: Boot Top -->
  <rect x="0" y="104" width="4" height="4" fill="#e8e8e8"/>
  <rect x="8" y="104" width="4" height="4" fill="#4a3728"/>
  <rect x="12" y="104" width="4" height="4" fill="#4a3728"/>
  <rect x="16" y="104" width="4" height="4" fill="#4a3728"/>
  <rect x="20" y="104" width="4" height="4" fill="#2d2218"/>
  <rect x="24" y="104" width="4" height="4" fill="#4a3728"/>
  <rect x="28" y="104" width="4" height="4" fill="#4a3728"/>

  <!-- Row 27: Boot -->
  <rect x="0" y="108" width="4" height="4" fill="#b0b0b0"/>
  <rect x="8" y="108" width="4" height="4" fill="#4a3728"/>
  <rect x="12" y="108" width="4" height="4" fill="#5a4030"/>
  <rect x="16" y="108" width="4" height="4" fill="#4a3728"/>
  <rect x="20" y="108" width="4" height="4" fill="#2d2218"/>
  <rect x="24" y="108" width="4" height="4" fill="#4a3728"/>
  <rect x="28" y="108" width="4" height="4" fill="#4a3728"/>

  <!-- Row 28: Lower Boot -->
  <rect x="0" y="112" width="4" height="4" fill="#e8e8e8"/>
  <rect x="4" y="112" width="4" height="4" fill="#2d2218"/>
  <rect x="8" y="112" width="4" height="4" fill="#4a3728"/>
  <rect x="12" y="112" width="4" height="4" fill="#4a3728"/>
  <rect x="16" y="112" width="4" height="4" fill="#2d2218"/>
  <rect x="20" y="112" width="4" height="4" fill="#2d2218"/>
  <rect x="24" y="112" width="4" height="4" fill="#4a3728"/>
  <rect x="28" y="112" width="4" height="4" fill="#2d2218"/>

  <!-- Row 29: Boot Sole -->
  <rect x="0" y="116" width="4" height="4" fill="#b0b0b0"/>
  <rect x="4" y="116" width="4" height="4" fill="#2d2218"/>
  <rect x="8" y="116" width="4" height="4" fill="#2d2218"/>
  <rect x="12" y="116" width="4" height="4" fill="#1a1510"/>
  <rect x="16" y="116" width="4" height="4" fill="#1a1510"/>
  <rect x="20" y="116" width="4" height="4" fill="#1a1510"/>
  <rect x="24" y="116" width="4" height="4" fill="#2d2218"/>
  <rect x="28" y="116" width="4" height="4" fill="#2d2218"/>

  <!-- Row 30: Sword Tip -->
  <rect x="0" y="120" width="4" height="4" fill="#e8e8e8"/>
  <rect x="4" y="120" width="4" height="4" fill="#1a1510"/>
  <rect x="8" y="120" width="4" height="4" fill="#1a1510"/>
  <rect x="12" y="120" width="4" height="4" fill="#1a1510"/>
  <rect x="16" y="120" width="4" height="4" fill="#1a1510"/>

  <!-- Row 31: Sword Point -->
  <rect x="0" y="124" width="4" height="4" fill="#c0c0c0"/>
</svg>
