<?xml version="1.0" encoding="UTF-8"?>
<svg xmlns="http://www.w3.org/2000/svg" viewBox="0 0 64 128" width="64" height="128" shape-rendering="crispEdges">
  <!-- 16-bit Pixel Art Hero Warrior - Facing Up (Back View) - 4x4 pixel blocks -->

  <!-- Row 0: Helmet Plume Top -->
  <rect x="24" y="0" width="4" height="4" fill="#d4af37"/>
  <rect x="28" y="0" width="4" height="4" fill="#d4af37"/>
  <rect x="32" y="0" width="4" height="4" fill="#d4af37"/>
  <rect x="36" y="0" width="4" height="4" fill="#a68b29"/>

  <!-- Row 1: Helmet Plume -->
  <rect x="20" y="4" width="4" height="4" fill="#d4af37"/>
  <rect x="24" y="4" width="4" height="4" fill="#f4d03f"/>
  <rect x="28" y="4" width="4" height="4" fill="#f4d03f"/>
  <rect x="32" y="4" width="4" height="4" fill="#d4af37"/>
  <rect x="36" y="4" width="4" height="4" fill="#d4af37"/>
  <rect x="40" y="4" width="4" height="4" fill="#a68b29"/>

  <!-- Row 2: Helmet Top -->
  <rect x="20" y="8" width="4" height="4" fill="#3d4866"/>
  <rect x="24" y="8" width="4" height="4" fill="#5a6988"/>
  <rect x="28" y="8" width="4" height="4" fill="#8899bb"/>
  <rect x="32" y="8" width="4" height="4" fill="#5a6988"/>
  <rect x="36" y="8" width="4" height="4" fill="#5a6988"/>
  <rect x="40" y="8" width="4" height="4" fill="#3d4866"/>

  <!-- Row 3: Helmet Back -->
  <rect x="16" y="12" width="4" height="4" fill="#3d4866"/>
  <rect x="20" y="12" width="4" height="4" fill="#5a6988"/>
  <rect x="24" y="12" width="4" height="4" fill="#5a6988"/>
  <rect x="28" y="12" width="4" height="4" fill="#5a6988"/>
  <rect x="32" y="12" width="4" height="4" fill="#5a6988"/>
  <rect x="36" y="12" width="4" height="4" fill="#5a6988"/>
  <rect x="40" y="12" width="4" height="4" fill="#5a6988"/>
  <rect x="44" y="12" width="4" height="4" fill="#3d4866"/>

  <!-- Row 4: Helmet Back Lower -->
  <rect x="16" y="16" width="4" height="4" fill="#3d4866"/>
  <rect x="20" y="16" width="4" height="4" fill="#5a6988"/>
  <rect x="24" y="16" width="4" height="4" fill="#3d4866"/>
  <rect x="28" y="16" width="4" height="4" fill="#5a6988"/>
  <rect x="32" y="16" width="4" height="4" fill="#5a6988"/>
  <rect x="36" y="16" width="4" height="4" fill="#3d4866"/>
  <rect x="40" y="16" width="4" height="4" fill="#5a6988"/>
  <rect x="44" y="16" width="4" height="4" fill="#3d4866"/>

  <!-- Row 5: Back of Head -->
  <rect x="16" y="20" width="4" height="4" fill="#3d4866"/>
  <rect x="20" y="20" width="4" height="4" fill="#5a6988"/>
  <rect x="24" y="20" width="4" height="4" fill="#5a6988"/>
  <rect x="28" y="20" width="4" height="4" fill="#3d4866"/>
  <rect x="32" y="20" width="4" height="4" fill="#3d4866"/>
  <rect x="36" y="20" width="4" height="4" fill="#5a6988"/>
  <rect x="40" y="20" width="4" height="4" fill="#5a6988"/>
  <rect x="44" y="20" width="4" height="4" fill="#3d4866"/>

  <!-- Row 6: Neck Guard -->
  <rect x="16" y="24" width="4" height="4" fill="#3d4866"/>
  <rect x="20" y="24" width="4" height="4" fill="#5a6988"/>
  <rect x="24" y="24" width="4" height="4" fill="#5a6988"/>
  <rect x="28" y="24" width="4" height="4" fill="#5a6988"/>
  <rect x="32" y="24" width="4" height="4" fill="#5a6988"/>
  <rect x="36" y="24" width="4" height="4" fill="#5a6988"/>
  <rect x="40" y="24" width="4" height="4" fill="#5a6988"/>
  <rect x="44" y="24" width="4" height="4" fill="#3d4866"/>

  <!-- Row 7: Neck / Cape Start -->
  <rect x="16" y="28" width="4" height="4" fill="#3d4866"/>
  <rect x="20" y="28" width="4" height="4" fill="#3d4866"/>
  <rect x="24" y="28" width="4" height="4" fill="#5a6988"/>
  <rect x="28" y="28" width="4" height="4" fill="#5a6988"/>
  <rect x="32" y="28" width="4" height="4" fill="#5a6988"/>
  <rect x="36" y="28" width="4" height="4" fill="#5a6988"/>
  <rect x="40" y="28" width="4" height="4" fill="#3d4866"/>
  <rect x="44" y="28" width="4" height="4" fill="#3d4866"/>

  <!-- Row 8: Cape Attachment -->
  <rect x="8" y="32" width="4" height="4" fill="#8c2828"/>
  <rect x="12" y="32" width="4" height="4" fill="#c23a3a"/>
  <rect x="16" y="32" width="4" height="4" fill="#c23a3a"/>
  <rect x="20" y="32" width="4" height="4" fill="#c23a3a"/>
  <rect x="24" y="32" width="4" height="4" fill="#c23a3a"/>
  <rect x="28" y="32" width="4" height="4" fill="#c23a3a"/>
  <rect x="32" y="32" width="4" height="4" fill="#c23a3a"/>
  <rect x="36" y="32" width="4" height="4" fill="#c23a3a"/>
  <rect x="40" y="32" width="4" height="4" fill="#c23a3a"/>
  <rect x="44" y="32" width="4" height="4" fill="#c23a3a"/>
  <rect x="48" y="32" width="4" height="4" fill="#c23a3a"/>
  <rect x="52" y="32" width="4" height="4" fill="#8c2828"/>

  <!-- Row 9: Shoulder Armor -->
  <rect x="4" y="36" width="4" height="4" fill="#8c2828"/>
  <rect x="8" y="36" width="4" height="4" fill="#c23a3a"/>
  <rect x="12" y="36" width="4" height="4" fill="#c23a3a"/>
  <rect x="16" y="36" width="4" height="4" fill="#5a6988"/>
  <rect x="20" y="36" width="4" height="4" fill="#d4af37"/>
  <rect x="24" y="36" width="4" height="4" fill="#c23a3a"/>
  <rect x="28" y="36" width="4" height="4" fill="#c23a3a"/>
  <rect x="32" y="36" width="4" height="4" fill="#c23a3a"/>
  <rect x="36" y="36" width="4" height="4" fill="#c23a3a"/>
  <rect x="40" y="36" width="4" height="4" fill="#d4af37"/>
  <rect x="44" y="36" width="4" height="4" fill="#5a6988"/>
  <rect x="48" y="36" width="4" height="4" fill="#c23a3a"/>
  <rect x="52" y="36" width="4" height="4" fill="#c23a3a"/>
  <rect x="56" y="36" width="4" height="4" fill="#8c2828"/>

  <!-- Row 10: Upper Cape / Arms -->
  <rect x="4" y="40" width="4" height="4" fill="#c23a3a"/>
  <rect x="8" y="40" width="4" height="4" fill="#5a6988"/>
  <rect x="12" y="40" width="4" height="4" fill="#5a6988"/>
  <rect x="16" y="40" width="4" height="4" fill="#c23a3a"/>
  <rect x="20" y="40" width="4" height="4" fill="#c23a3a"/>
  <rect x="24" y="40" width="4" height="4" fill="#c23a3a"/>
  <rect x="28" y="40" width="4" height="4" fill="#8c2828"/>
  <rect x="32" y="40" width="4" height="4" fill="#8c2828"/>
  <rect x="36" y="40" width="4" height="4" fill="#c23a3a"/>
  <rect x="40" y="40" width="4" height="4" fill="#c23a3a"/>
  <rect x="44" y="40" width="4" height="4" fill="#c23a3a"/>
  <rect x="48" y="40" width="4" height="4" fill="#5a6988"/>
  <rect x="52" y="40" width="4" height="4" fill="#5a6988"/>
  <rect x="56" y="40" width="4" height="4" fill="#c23a3a"/>

  <!-- Row 11: Cape -->
  <rect x="4" y="44" width="4" height="4" fill="#c23a3a"/>
  <rect x="8" y="44" width="4" height="4" fill="#3d4866"/>
  <rect x="12" y="44" width="4" height="4" fill="#5a6988"/>
  <rect x="16" y="44" width="4" height="4" fill="#c23a3a"/>
  <rect x="20" y="44" width="4" height="4" fill="#c23a3a"/>
  <rect x="24" y="44" width="4" height="4" fill="#8c2828"/>
  <rect x="28" y="44" width="4" height="4" fill="#c23a3a"/>
  <rect x="32" y="44" width="4" height="4" fill="#c23a3a"/>
  <rect x="36" y="44" width="4" height="4" fill="#8c2828"/>
  <rect x="40" y="44" width="4" height="4" fill="#c23a3a"/>
  <rect x="44" y="44" width="4" height="4" fill="#c23a3a"/>
  <rect x="48" y="44" width="4" height="4" fill="#5a6988"/>
  <rect x="52" y="44" width="4" height="4" fill="#3d4866"/>
  <rect x="56" y="44" width="4" height="4" fill="#c23a3a"/>

  <!-- Row 12: Cape with Folds -->
  <rect x="4" y="48" width="4" height="4" fill="#8c2828"/>
  <rect x="8" y="48" width="4" height="4" fill="#5a6988"/>
  <rect x="12" y="48" width="4" height="4" fill="#3d4866"/>
  <rect x="16" y="48" width="4" height="4" fill="#c23a3a"/>
  <rect x="20" y="48" width="4" height="4" fill="#8c2828"/>
  <rect x="24" y="48" width="4" height="4" fill="#c23a3a"/>
  <rect x="28" y="48" width="4" height="4" fill="#c23a3a"/>
  <rect x="32" y="48" width="4" height="4" fill="#c23a3a"/>
  <rect x="36" y="48" width="4" height="4" fill="#c23a3a"/>
  <rect x="40" y="48" width="4" height="4" fill="#8c2828"/>
  <rect x="44" y="48" width="4" height="4" fill="#c23a3a"/>
  <rect x="48" y="48" width="4" height="4" fill="#3d4866"/>
  <rect x="52" y="48" width="4" height="4" fill="#5a6988"/>
  <rect x="56" y="48" width="4" height="4" fill="#8c2828"/>

  <!-- Row 13: Belt visible through cape -->
  <rect x="4" y="52" width="4" height="4" fill="#8c2828"/>
  <rect x="8" y="52" width="4" height="4" fill="#c23a3a"/>
  <rect x="12" y="52" width="4" height="4" fill="#5a6988"/>
  <rect x="16" y="52" width="4" height="4" fill="#c23a3a"/>
  <rect x="20" y="52" width="4" height="4" fill="#c23a3a"/>
  <rect x="24" y="52" width="4" height="4" fill="#8c2828"/>
  <rect x="28" y="52" width="4" height="4" fill="#8c2828"/>
  <rect x="32" y="52" width="4" height="4" fill="#8c2828"/>
  <rect x="36" y="52" width="4" height="4" fill="#8c2828"/>
  <rect x="40" y="52" width="4" height="4" fill="#c23a3a"/>
  <rect x="44" y="52" width="4" height="4" fill="#c23a3a"/>
  <rect x="48" y="52" width="4" height="4" fill="#5a6988"/>
  <rect x="52" y="52" width="4" height="4" fill="#c23a3a"/>
  <rect x="56" y="52" width="4" height="4" fill="#8c2828"/>

  <!-- Row 14: Arms / Cape -->
  <rect x="0" y="56" width="4" height="4" fill="#e8e8e8"/>
  <rect x="4" y="56" width="4" height="4" fill="#f4c17a"/>
  <rect x="8" y="56" width="4" height="4" fill="#5a6988"/>
  <rect x="12" y="56" width="4" height="4" fill="#5a6988"/>
  <rect x="16" y="56" width="4" height="4" fill="#c23a3a"/>
  <rect x="20" y="56" width="4" height="4" fill="#8c2828"/>
  <rect x="24" y="56" width="4" height="4" fill="#c23a3a"/>
  <rect x="28" y="56" width="4" height="4" fill="#c23a3a"/>
  <rect x="32" y="56" width="4" height="4" fill="#c23a3a"/>
  <rect x="36" y="56" width="4" height="4" fill="#c23a3a"/>
  <rect x="40" y="56" width="4" height="4" fill="#8c2828"/>
  <rect x="44" y="56" width="4" height="4" fill="#c23a3a"/>
  <rect x="48" y="56" width="4" height="4" fill="#5a6988"/>
  <rect x="52" y="56" width="4" height="4" fill="#5a6988"/>
  <rect x="56" y="56" width="4" height="4" fill="#f4c17a"/>

  <!-- Row 15: Gauntlets -->
  <rect x="0" y="60" width="4" height="4" fill="#b0b0b0"/>
  <rect x="4" y="60" width="4" height="4" fill="#d4af37"/>
  <rect x="8" y="60" width="4" height="4" fill="#5a6988"/>
  <rect x="12" y="60" width="4" height="4" fill="#8899bb"/>
  <rect x="16" y="60" width="4" height="4" fill="#c23a3a"/>
  <rect x="20" y="60" width="4" height="4" fill="#c23a3a"/>
  <rect x="24" y="60" width="4" height="4" fill="#8c2828"/>
  <rect x="28" y="60" width="4" height="4" fill="#c23a3a"/>
  <rect x="32" y="60" width="4" height="4" fill="#c23a3a"/>
  <rect x="36" y="60" width="4" height="4" fill="#8c2828"/>
  <rect x="40" y="60" width="4" height="4" fill="#c23a3a"/>
  <rect x="44" y="60" width="4" height="4" fill="#c23a3a"/>
  <rect x="48" y="60" width="4" height="4" fill="#8899bb"/>
  <rect x="52" y="60" width="4" height="4" fill="#5a6988"/>
  <rect x="56" y="60" width="4" height="4" fill="#d4af37"/>

  <!-- Row 16: Hands / Cape Lower -->
  <rect x="0" y="64" width="4" height="4" fill="#e8e8e8"/>
  <rect x="4" y="64" width="4" height="4" fill="#f4c17a"/>
  <rect x="8" y="64" width="4" height="4" fill="#d4a456"/>
  <rect x="12" y="64" width="4" height="4" fill="#c23a3a"/>
  <rect x="16" y="64" width="4" height="4" fill="#8c2828"/>
  <rect x="20" y="64" width="4" height="4" fill="#c23a3a"/>
  <rect x="24" y="64" width="4" height="4" fill="#c23a3a"/>
  <rect x="28" y="64" width="4" height="4" fill="#8c2828"/>
  <rect x="32" y="64" width="4" height="4" fill="#8c2828"/>
  <rect x="36" y="64" width="4" height="4" fill="#c23a3a"/>
  <rect x="40" y="64" width="4" height="4" fill="#c23a3a"/>
  <rect x="44" y="64" width="4" height="4" fill="#8c2828"/>
  <rect x="48" y="64" width="4" height="4" fill="#c23a3a"/>
  <rect x="52" y="64" width="4" height="4" fill="#d4a456"/>
  <rect x="56" y="64" width="4" height="4" fill="#f4c17a"/>

  <!-- Row 17: Cape / Upper Legs -->
  <rect x="0" y="68" width="4" height="4" fill="#b0b0b0"/>
  <rect x="4" y="68" width="4" height="4" fill="#8b4513"/>
  <rect x="12" y="68" width="4" height="4" fill="#8c2828"/>
  <rect x="16" y="68" width="4" height="4" fill="#c23a3a"/>
  <rect x="20" y="68" width="4" height="4" fill="#8c2828"/>
  <rect x="24" y="68" width="4" height="4" fill="#c23a3a"/>
  <rect x="28" y="68" width="4" height="4" fill="#c23a3a"/>
  <rect x="32" y="68" width="4" height="4" fill="#c23a3a"/>
  <rect x="36" y="68" width="4" height="4" fill="#c23a3a"/>
  <rect x="40" y="68" width="4" height="4" fill="#8c2828"/>
  <rect x="44" y="68" width="4" height="4" fill="#c23a3a"/>
  <rect x="48" y="68" width="4" height="4" fill="#8c2828"/>

  <!-- Row 18: Cape / Tassets -->
  <rect x="0" y="72" width="4" height="4" fill="#e8e8e8"/>
  <rect x="4" y="72" width="4" height="4" fill="#d4af37"/>
  <rect x="12" y="72" width="4" height="4" fill="#c23a3a"/>
  <rect x="16" y="72" width="4" height="4" fill="#8c2828"/>
  <rect x="20" y="72" width="4" height="4" fill="#c23a3a"/>
  <rect x="24" y="72" width="4" height="4" fill="#8c2828"/>
  <rect x="28" y="72" width="4" height="4" fill="#c23a3a"/>
  <rect x="32" y="72" width="4" height="4" fill="#c23a3a"/>
  <rect x="36" y="72" width="4" height="4" fill="#8c2828"/>
  <rect x="40" y="72" width="4" height="4" fill="#c23a3a"/>
  <rect x="44" y="72" width="4" height="4" fill="#8c2828"/>
  <rect x="48" y="72" width="4" height="4" fill="#c23a3a"/>

  <!-- Row 19: Cape Lower / Thighs -->
  <rect x="0" y="76" width="4" height="4" fill="#b0b0b0"/>
  <rect x="12" y="76" width="4" height="4" fill="#8c2828"/>
  <rect x="16" y="76" width="4" height="4" fill="#c23a3a"/>
  <rect x="20" y="76" width="4" height="4" fill="#8c2828"/>
  <rect x="24" y="76" width="4" height="4" fill="#c23a3a"/>
  <rect x="28" y="76" width="4" height="4" fill="#c23a3a"/>
  <rect x="32" y="76" width="4" height="4" fill="#c23a3a"/>
  <rect x="36" y="76" width="4" height="4" fill="#c23a3a"/>
  <rect x="40" y="76" width="4" height="4" fill="#8c2828"/>
  <rect x="44" y="76" width="4" height="4" fill="#c23a3a"/>
  <rect x="48" y="76" width="4" height="4" fill="#8c2828"/>

  <!-- Row 20: Thighs / Cape Edge -->
  <rect x="0" y="80" width="4" height="4" fill="#e8e8e8"/>
  <rect x="16" y="80" width="4" height="4" fill="#8c2828"/>
  <rect x="20" y="80" width="4" height="4" fill="#c23a3a"/>
  <rect x="24" y="80" width="4" height="4" fill="#8c2828"/>
  <rect x="28" y="80" width="4" height="4" fill="#c23a3a"/>
  <rect x="32" y="80" width="4" height="4" fill="#c23a3a"/>
  <rect x="36" y="80" width="4" height="4" fill="#8c2828"/>
  <rect x="40" y="80" width="4" height="4" fill="#c23a3a"/>
  <rect x="44" y="80" width="4" height="4" fill="#8c2828"/>

  <!-- Row 21: Thighs -->
  <rect x="0" y="84" width="4" height="4" fill="#b0b0b0"/>
  <rect x="16" y="84" width="4" height="4" fill="#8c2828"/>
  <rect x="20" y="84" width="4" height="4" fill="#5a6988"/>
  <rect x="24" y="84" width="4" height="4" fill="#3d4866"/>
  <rect x="28" y="84" width="4" height="4" fill="#8c2828"/>
  <rect x="32" y="84" width="4" height="4" fill="#8c2828"/>
  <rect x="36" y="84" width="4" height="4" fill="#3d4866"/>
  <rect x="40" y="84" width="4" height="4" fill="#5a6988"/>
  <rect x="44" y="84" width="4" height="4" fill="#8c2828"/>

  <!-- Row 22: Knee Guards -->
  <rect x="0" y="88" width="4" height="4" fill="#e8e8e8"/>
  <rect x="16" y="88" width="4" height="4" fill="#c23a3a"/>
  <rect x="20" y="88" width="4" height="4" fill="#5a6988"/>
  <rect x="24" y="88" width="4" height="4" fill="#5a6988"/>
  <rect x="28" y="88" width="4" height="4" fill="#3d4866"/>
  <rect x="32" y="88" width="4" height="4" fill="#3d4866"/>
  <rect x="36" y="88" width="4" height="4" fill="#5a6988"/>
  <rect x="40" y="88" width="4" height="4" fill="#5a6988"/>
  <rect x="44" y="88" width="4" height="4" fill="#c23a3a"/>

  <!-- Row 23: Shins -->
  <rect x="0" y="92" width="4" height="4" fill="#b0b0b0"/>
  <rect x="16" y="92" width="4" height="4" fill="#8c2828"/>
  <rect x="20" y="92" width="4" height="4" fill="#3d4866"/>
  <rect x="24" y="92" width="4" height="4" fill="#5a6988"/>
  <rect x="28" y="92" width="4" height="4" fill="#5a6988"/>
  <rect x="32" y="92" width="4" height="4" fill="#5a6988"/>
  <rect x="36" y="92" width="4" height="4" fill="#5a6988"/>
  <rect x="40" y="92" width="4" height="4" fill="#3d4866"/>
  <rect x="44" y="92" width="4" height="4" fill="#8c2828"/>

  <!-- Row 24: Lower Shins -->
  <rect x="0" y="96" width="4" height="4" fill="#e8e8e8"/>
  <rect x="16" y="96" width="4" height="4" fill="#8c2828"/>
  <rect x="20" y="96" width="4" height="4" fill="#5a6988"/>
  <rect x="24" y="96" width="4" height="4" fill="#3d4866"/>
  <rect x="28" y="96" width="4" height="4" fill="#5a6988"/>
  <rect x="32" y="96" width="4" height="4" fill="#5a6988"/>
  <rect x="36" y="96" width="4" height="4" fill="#3d4866"/>
  <rect x="40" y="96" width="4" height="4" fill="#5a6988"/>
  <rect x="44" y="96" width="4" height="4" fill="#8c2828"/>

  <!-- Row 25: Ankles -->
  <rect x="0" y="100" width="4" height="4" fill="#b0b0b0"/>
  <rect x="16" y="100" width="4" height="4" fill="#c23a3a"/>
  <rect x="20" y="100" width="4" height="4" fill="#5a6988"/>
  <rect x="24" y="100" width="4" height="4" fill="#5a6988"/>
  <rect x="28" y="100" width="4" height="4" fill="#3d4866"/>
  <rect x="32" y="100" width="4" height="4" fill="#3d4866"/>
  <rect x="36" y="100" width="4" height="4" fill="#5a6988"/>
  <rect x="40" y="100" width="4" height="4" fill="#5a6988"/>
  <rect x="44" y="100" width="4" height="4" fill="#c23a3a"/>

  <!-- Row 26: Boot Tops -->
  <rect x="0" y="104" width="4" height="4" fill="#e8e8e8"/>
  <rect x="16" y="104" width="4" height="4" fill="#4a3728"/>
  <rect x="20" y="104" width="4" height="4" fill="#4a3728"/>
  <rect x="24" y="104" width="4" height="4" fill="#4a3728"/>
  <rect x="28" y="104" width="4" height="4" fill="#2d2218"/>
  <rect x="32" y="104" width="4" height="4" fill="#2d2218"/>
  <rect x="36" y="104" width="4" height="4" fill="#4a3728"/>
  <rect x="40" y="104" width="4" height="4" fill="#4a3728"/>
  <rect x="44" y="104" width="4" height="4" fill="#4a3728"/>

  <!-- Row 27: Boots -->
  <rect x="0" y="108" width="4" height="4" fill="#b0b0b0"/>
  <rect x="16" y="108" width="4" height="4" fill="#4a3728"/>
  <rect x="20" y="108" width="4" height="4" fill="#2d2218"/>
  <rect x="24" y="108" width="4" height="4" fill="#4a3728"/>
  <rect x="28" y="108" width="4" height="4" fill="#2d2218"/>
  <rect x="32" y="108" width="4" height="4" fill="#2d2218"/>
  <rect x="36" y="108" width="4" height="4" fill="#4a3728"/>
  <rect x="40" y="108" width="4" height="4" fill="#2d2218"/>
  <rect x="44" y="108" width="4" height="4" fill="#4a3728"/>

  <!-- Row 28: Lower Boots -->
  <rect x="0" y="112" width="4" height="4" fill="#e8e8e8"/>
  <rect x="12" y="112" width="4" height="4" fill="#2d2218"/>
  <rect x="16" y="112" width="4" height="4" fill="#4a3728"/>
  <rect x="20" y="112" width="4" height="4" fill="#4a3728"/>
  <rect x="24" y="112" width="4" height="4" fill="#2d2218"/>
  <rect x="28" y="112" width="4" height="4" fill="#2d2218"/>
  <rect x="32" y="112" width="4" height="4" fill="#2d2218"/>
  <rect x="36" y="112" width="4" height="4" fill="#2d2218"/>
  <rect x="40" y="112" width="4" height="4" fill="#4a3728"/>
  <rect x="44" y="112" width="4" height="4" fill="#4a3728"/>
  <rect x="48" y="112" width="4" height="4" fill="#2d2218"/>

  <!-- Row 29: Boot Soles -->
  <rect x="0" y="116" width="4" height="4" fill="#b0b0b0"/>
  <rect x="12" y="116" width="4" height="4" fill="#2d2218"/>
  <rect x="16" y="116" width="4" height="4" fill="#2d2218"/>
  <rect x="20" y="116" width="4" height="4" fill="#2d2218"/>
  <rect x="24" y="116" width="4" height="4" fill="#1a1510"/>
  <rect x="28" y="116" width="4" height="4" fill="#1a1510"/>
  <rect x="32" y="116" width="4" height="4" fill="#1a1510"/>
  <rect x="36" y="116" width="4" height="4" fill="#1a1510"/>
  <rect x="40" y="116" width="4" height="4" fill="#2d2218"/>
  <rect x="44" y="116" width="4" height="4" fill="#2d2218"/>
  <rect x="48" y="116" width="4" height="4" fill="#2d2218"/>

  <!-- Row 30: Ground -->
  <rect x="0" y="120" width="4" height="4" fill="#e8e8e8"/>
  <rect x="12" y="120" width="4" height="4" fill="#1a1510"/>
  <rect x="16" y="120" width="4" height="4" fill="#1a1510"/>
  <rect x="20" y="120" width="4" height="4" fill="#1a1510"/>
  <rect x="24" y="120" width="4" height="4" fill="#1a1510"/>
  <rect x="36" y="120" width="4" height="4" fill="#1a1510"/>
  <rect x="40" y="120" width="4" height="4" fill="#1a1510"/>
  <rect x="44" y="120" width="4" height="4" fill="#1a1510"/>
  <rect x="48" y="120" width="4" height="4" fill="#1a1510"/>

  <!-- Row 31: Sword visible on back -->
  <rect x="0" y="124" width="4" height="4" fill="#c0c0c0"/>
</svg>
