<svg viewBox="0 0 128 128" xmlns="http://www.w3.org/2000/svg">
  <!-- Base shadow -->
  <ellipse cx="64" cy="118" rx="40" ry="6" fill="#1a4d2e" opacity="0.3"/>

  <!-- Main slime body - darkest green (bottom/shadow) -->
  <rect x="32" y="96" width="8" height="8" fill="#2d5016"/>
  <rect x="40" y="96" width="8" height="8" fill="#2d5016"/>
  <rect x="48" y="96" width="8" height="8" fill="#2d5016"/>
  <rect x="56" y="96" width="8" height="8" fill="#2d5016"/>
  <rect x="64" y="96" width="8" height="8" fill="#2d5016"/>
  <rect x="72" y="96" width="8" height="8" fill="#2d5016"/>
  <rect x="80" y="96" width="8" height="8" fill="#2d5016"/>
  <rect x="88" y="96" width="8" height="8" fill="#2d5016"/>

  <!-- Second row - dark green -->
  <rect x="24" y="88" width="8" height="8" fill="#3a7d1f"/>
  <rect x="32" y="88" width="8" height="8" fill="#3a7d1f"/>
  <rect x="40" y="88" width="8" height="8" fill="#3a7d1f"/>
  <rect x="48" y="88" width="8" height="8" fill="#3a7d1f"/>
  <rect x="56" y="88" width="8" height="8" fill="#3a7d1f"/>
  <rect x="64" y="88" width="8" height="8" fill="#3a7d1f"/>
  <rect x="72" y="88" width="8" height="8" fill="#3a7d1f"/>
  <rect x="80" y="88" width="8" height="8" fill="#3a7d1f"/>
  <rect x="88" y="88" width="8" height="8" fill="#3a7d1f"/>
  <rect x="96" y="88" width="8" height="8" fill="#3a7d1f"/>

  <!-- Third row - mid green -->
  <rect x="16" y="80" width="8" height="8" fill="#4caf50"/>
  <rect x="24" y="80" width="8" height="8" fill="#4caf50"/>
  <rect x="32" y="80" width="8" height="8" fill="#4caf50"/>
  <rect x="40" y="80" width="8" height="8" fill="#4caf50"/>
  <rect x="48" y="80" width="8" height="8" fill="#4caf50"/>
  <rect x="56" y="80" width="8" height="8" fill="#4caf50"/>
  <rect x="64" y="80" width="8" height="8" fill="#4caf50"/>
  <rect x="72" y="80" width="8" height="8" fill="#4caf50"/>
  <rect x="80" y="80" width="8" height="8" fill="#4caf50"/>
  <rect x="88" y="80" width="8" height="8" fill="#4caf50"/>
  <rect x="96" y="80" width="8" height="8" fill="#4caf50"/>
  <rect x="104" y="80" width="8" height="8" fill="#4caf50"/>

  <!-- Fourth row -->
  <rect x="16" y="72" width="8" height="8" fill="#4caf50"/>
  <rect x="24" y="72" width="8" height="8" fill="#4caf50"/>
  <rect x="32" y="72" width="8" height="8" fill="#4caf50"/>
  <rect x="40" y="72" width="8" height="8" fill="#4caf50"/>
  <rect x="48" y="72" width="8" height="8" fill="#4caf50"/>
  <rect x="56" y="72" width="8" height="8" fill="#4caf50"/>
  <rect x="64" y="72" width="8" height="8" fill="#4caf50"/>
  <rect x="72" y="72" width="8" height="8" fill="#4caf50"/>
  <rect x="80" y="72" width="8" height="8" fill="#4caf50"/>
  <rect x="88" y="72" width="8" height="8" fill="#4caf50"/>
  <rect x="96" y="72" width="8" height="8" fill="#4caf50"/>
  <rect x="104" y="72" width="8" height="8" fill="#4caf50"/>

  <!-- Fifth row - top section -->
  <rect x="16" y="64" width="8" height="8" fill="#4caf50"/>
  <rect x="24" y="64" width="8" height="8" fill="#4caf50"/>
  <rect x="32" y="64" width="8" height="8" fill="#4caf50"/>
  <rect x="40" y="64" width="8" height="8" fill="#4caf50"/>
  <rect x="48" y="64" width="8" height="8" fill="#4caf50"/>
  <rect x="56" y="64" width="8" height="8" fill="#4caf50"/>
  <rect x="64" y="64" width="8" height="8" fill="#4caf50"/>
  <rect x="72" y="64" width="8" height="8" fill="#4caf50"/>
  <rect x="80" y="64" width="8" height="8" fill="#4caf50"/>
  <rect x="88" y="64" width="8" height="8" fill="#4caf50"/>
  <rect x="96" y="64" width="8" height="8" fill="#4caf50"/>
  <rect x="104" y="64" width="8" height="8" fill="#4caf50"/>

  <!-- Sixth row -->
  <rect x="24" y="56" width="8" height="8" fill="#4caf50"/>
  <rect x="32" y="56" width="8" height="8" fill="#4caf50"/>
  <rect x="40" y="56" width="8" height="8" fill="#4caf50"/>
  <rect x="48" y="56" width="8" height="8" fill="#4caf50"/>
  <rect x="56" y="56" width="8" height="8" fill="#4caf50"/>
  <rect x="64" y="56" width="8" height="8" fill="#4caf50"/>
  <rect x="72" y="56" width="8" height="8" fill="#4caf50"/>
  <rect x="80" y="56" width="8" height="8" fill="#4caf50"/>
  <rect x="88" y="56" width="8" height="8" fill="#4caf50"/>
  <rect x="96" y="56" width="8" height="8" fill="#4caf50"/>

  <!-- Seventh row (top) -->
  <rect x="32" y="48" width="8" height="8" fill="#4caf50"/>
  <rect x="40" y="48" width="8" height="8" fill="#4caf50"/>
  <rect x="48" y="48" width="8" height="8" fill="#4caf50"/>
  <rect x="56" y="48" width="8" height="8" fill="#4caf50"/>
  <rect x="64" y="48" width="8" height="8" fill="#4caf50"/>
  <rect x="72" y="48" width="8" height="8" fill="#4caf50"/>
  <rect x="80" y="48" width="8" height="8" fill="#4caf50"/>
  <rect x="88" y="48" width="8" height="8" fill="#4caf50"/>

  <!-- Top row -->
  <rect x="40" y="40" width="8" height="8" fill="#4caf50"/>
  <rect x="48" y="40" width="8" height="8" fill="#4caf50"/>
  <rect x="56" y="40" width="8" height="8" fill="#4caf50"/>
  <rect x="64" y="40" width="8" height="8" fill="#4caf50"/>
  <rect x="72" y="40" width="8" height="8" fill="#4caf50"/>
  <rect x="80" y="40" width="8" height="8" fill="#4caf50"/>

  <!-- Light highlights (top-left for glossy effect) -->
  <rect x="40" y="40" width="8" height="8" fill="#81c784"/>
  <rect x="48" y="40" width="8" height="8" fill="#81c784"/>
  <rect x="56" y="40" width="8" height="8" fill="#81c784"/>
  <rect x="32" y="48" width="8" height="8" fill="#81c784"/>
  <rect x="40" y="48" width="8" height="8" fill="#81c784"/>
  <rect x="48" y="48" width="8" height="8" fill="#81c784"/>
  <rect x="24" y="56" width="8" height="8" fill="#81c784"/>
  <rect x="32" y="56" width="8" height="8" fill="#81c784"/>
  <rect x="40" y="56" width="8" height="8" fill="#81c784"/>
  <rect x="16" y="64" width="8" height="8" fill="#81c784"/>
  <rect x="24" y="64" width="8" height="8" fill="#81c784"/>
  <rect x="32" y="64" width="8" height="8" fill="#81c784"/>

  <!-- Bright highlight spot (glossy shine) -->
  <rect x="48" y="40" width="8" height="8" fill="#a5d6a7"/>
  <rect x="56" y="40" width="8" height="8" fill="#a5d6a7"/>
  <rect x="40" y="48" width="8" height="8" fill="#a5d6a7"/>
  <rect x="48" y="48" width="8" height="8" fill="#a5d6a7"/>
  <rect x="32" y="56" width="8" height="8" fill="#a5d6a7"/>
  <rect x="40" y="56" width="8" height="8" fill="#a5d6a7"/>

  <!-- Eyes - white base -->
  <rect x="40" y="64" width="8" height="8" fill="#ffffff"/>
  <rect x="48" y="64" width="8" height="8" fill="#ffffff"/>
  <rect x="40" y="72" width="8" height="8" fill="#ffffff"/>
  <rect x="48" y="72" width="8" height="8" fill="#ffffff"/>

  <rect x="72" y="64" width="8" height="8" fill="#ffffff"/>
  <rect x="80" y="64" width="8" height="8" fill="#ffffff"/>
  <rect x="72" y="72" width="8" height="8" fill="#ffffff"/>
  <rect x="80" y="72" width="8" height="8" fill="#ffffff"/>

  <!-- Eyes - black pupils (menacing look) -->
  <rect x="48" y="64" width="8" height="8" fill="#000000"/>
  <rect x="48" y="72" width="8" height="8" fill="#000000"/>

  <rect x="80" y="64" width="8" height="8" fill="#000000"/>
  <rect x="80" y="72" width="8" height="8" fill="#000000"/>

  <!-- Eye shine/highlight -->
  <rect x="40" y="64" width="8" height="8" fill="#ffffff"/>
  <rect x="72" y="64" width="8" height="8" fill="#ffffff"/>

  <!-- Mouth outline (simple curved line for cute/menacing) -->
  <rect x="48" y="88" width="8" height="8" fill="#2d5016"/>
  <rect x="56" y="88" width="8" height="8" fill="#2d5016"/>
  <rect x="64" y="88" width="8" height="8" fill="#2d5016"/>
  <rect x="72" y="88" width="8" height="8" fill="#2d5016"/>
  <rect x="40" y="80" width="8" height="8" fill="#2d5016"/>
  <rect x="80" y="80" width="8" height="8" fill="#2d5016"/>
</svg>